<svg xmlns="http://www.w3.org/2000/svg" id="Storybooks_Kenya_Logo" version="1" viewBox="0 0 667 511"><defs id="defs44"><filter id="filter1795" width="1" height="1" x="0" y="0" color-interpolation-filters="sRGB"><feGaussianBlur id="feGaussianBlur1797" stdDeviation="28"/></filter><path id="spearshape" stroke-miterlimit="10" d="M-1 55h2v-93c2-2 2-5 2-8 0-2 0-10-3-19-3 9-3 17-3 19 0 3 0 6 2 8z" transform="rotate(30)"/></defs><style id="style3">.st0{fill:#337fbe}.st1{fill:#3bb54a}</style><g id="g3036" transform="translate(-43 -52)"><g id="Globe"><circle id="circle8" cx="376" cy="305" r="222" fill="#337fbe" class="st0"/><g id="g10"><path id="path12" fill="#3bb54a" d="M176 212c3 0 5 4 8 6l9 3 3 2c1 3-3 5-2 7l2 3v2l3 3v2l1 2 8 4 2 1c6 5 0 16-1 21-2 12 3 18 9 26l4 6c6 8 15 15 22 22l2 3 1 4 7 6 18 8c7 4 13 2 19 5 10 3 21 7 29 14 3 3 3 8 3 12l-1 3-1 2-3 2-1 1c-1 1-2 3-1 4l-2 3-1 7 1 5 2 2 1 2c0 3 2 6 4 7l5 2 2 2c3 2 6 3 8 6 3 6-6 18-6 25v8l-5 15c-2 4-5 10-5 15l7 7 1 3-1 2-3 16 1 2 1 2c3 3 8 5 13 6l1-11a26 26 0 0 1 6-14h1c2 0 3-1 4-3l2-5c4-9 12-10 17-17l6-8 8-10c2-3 3-7 6-9l4-3c7-3 19-15 15-23l-2-3 2-4c2-4 18-21 8-26l-5-1c-5-2-8-7-12-9-6-2-13 0-17-6l-2-4-4-5-6-6-2-1c-3-2-9 1-14 0l-3 2c-3 0-6 0-7-2l-2-4c-2-3-8-5-9-8-1-1-3 0-4 1l-1 3-6 8c-3-1-5-3-6-5l-1-3-2-2-5-2c-2-1-5-3-5-6v-5l1-3v-2h-3l-3 3-4 1-3 2c-3 1-8-1-11-2-2 0-4-1-5-3-2-4-2-13 1-16 4-4 3-8 11-8l10 2h10l2 4 2 4 1 2v3c0 4 0 7 2 9l2-2 2-1v-2l-2-13v-3l1-2 5-11c1-3 2-7 4-8 0-2 1-3 3-3l4-1 3-2a68 68 0 0 1 14-9l5-2c1-2 0-4 2-5l2-2-1-1-5-2h-3c-2 0-4-2-5-4l-1-1 1-1 4-7 1-1 4-1 4 2h7l3 2h3l2-4c-1-3 0-8 3-11l1-1v-2c0-2-1-4-3-5s-5 1-8 1l-10-2-1-1-1-1c-1-2-3-13-6-14l-8-1c-1-1-2 0-2 1v1l-2 2-3-2-9-14-1-1h-2c-2 0-5 0-5 2l-2 2c0 6 4 14 4 20v3l-1 1c-3 2-5 12-8 13h-2l-4-3-3-4c-1-2-4-3-6-4-3-2-12-7-13-11-2-4 2-6 3-10s1-7 6-8c7-3 15-7 22-8 3 0 5 0 6-2 1-3 0-5-2-7l-8-10c-1-1-3-10-6-7l-1 1c-2 3-5 4-8 3-2 0-2-2-2-3v-12c0-2 0-4-2-5l-2 1c-2 1-5 2-6 4l-3 2h-9l-1-1-8-14-2-1c-2 0-1 5-3 6-3 1-7 4-10 2l-5-3c-4-3-6-1-8 2l-1 1 1 2 7 8c3 3-4 6 3 7l3 4 2 4 1 1c3 5-13 3-14 2-8-4-19-11-27-11-15 15-32 47-33 52" class="st1"/><path id="path14" fill="#3bb54a" d="M332 323h-5c0 2 2 3 3 4l2 3 5 1 6-1h3l3-1 2-2-1-1-5-1h-2l-4-4h-5l-3 2" class="st1"/><path id="path16" fill="#3bb54a" d="M591 354c0-3 1-8-2-11l-2-3c-6-9-1-20-15-25-7-2-14-2-21-1l-6-1c-6-3-4-12-8-18s-12-5-20-4l-26 3-7 2c-5 2-8 7-10 12-8 19-17 41-8 59 3 5 8 10 13 8l8-7c5-4 12-3 17 1l16 10c4 2 9 3 11 7l1 7c0 9 0 19-4 27-2 4-5 9-3 13l4 4c7 5 7 15 6 24 0-5 15-17 18-21a219 219 0 0 0 39-80" class="st1"/><path id="path18" fill="#3bb54a" d="M596 335c-5-6-5-14-9-19-1-2-3-3-3-5l1-5c1-5 2-11-2-15-4-5-13-5-17-10l-2-2c-2-1-4 0-5 1-4 2-9 2-13 1v-7l-7-2c-3 1-5 3-8 3l-4-1-9 1-6 3c-2 1-4 3-4 5-2 0-5 1-6 3l-6 1c-4 1-10 2-12-1l-3-5-2-9c-1-3-2-7 1-8l4-1c3 0 5-2 6-5h2c1-5-4-11-1-15l6-3c1-1 3-3 5-3h5l4-3c3-1 5 0 7 2l6 5h7l2-1 1-2c0-4 0-8-3-10l-3-3-3-3-2-4c1-2 3-2 4-2h5l1-3h9l7-2c3 1 4 4 5 7l2 7 3 2c2 0 2-3 2-5 1 1 3-1 4-3 2-6 2-13-1-19-3-5-8-9-8-15-4 4-6 8-8 13 0 3-1 6-3 7l-4 2-19 4c-2 0-5 0-7-2s-1-7 1-9l6-8 2-4c2-2 5-2 8-3 3-2 4-6 4-9 1-3 1-7 3-10 1-2 3-4 5-3l5 2c35 43 57 101 47 170" class="st1"/><path id="path20" fill="#3bb54a" d="m493 212-3 4 1 5-1 4-6 9c-2 1-4 3-4 5v1l2 1 5-1 7-4 3-1c5-1 8-7 6-11l-4-8c0-2 0-4-2-5l-2-2-2 1" class="st1"/><path id="path22" fill="#3bb54a" d="M458 177c-2 0-4 3-6 5s-4 4-7 3l11 14 2 2h10c4-2 5-6 7-9l5-3 2-5-1-8c-2-2-7-2-10-2l-6 1c-3 0-6 1-8 3" class="st1"/><path id="path24" fill="#3bb54a" d="M378 140c3 15 7 28 13 41l2 7c4 11 15 19 26 19l2-18 1-3 5-1c3-1 3-7 6-8h4c4 0 10-4 14-6l2-1 1-2a1388 1388 0 0 0 6-15c0-2-3-3-3-6-1-4 2-9 2-13 0-3 0-10 5-9l4-13c1-2 1-5-1-6h-4c-4-1-6-6-10-5-4 0-5 3-8 4s-6-1-7-3c-1-3 1-8 3-10l-28-6-3 9h-9c-2 3-5 6-9 8-3 1-6 2-8 1-3-2-5-6-9-6l-4-13c-4 0-9-1-13 1l-3 2c-4 2-9 0-13-1l-2 17c0 2 0 5-2 6-3 2-7-1-7-4-3-3-5-8-5-13-6-3-13-2-18 3 6 3 10 9 11 16-4 2-8 0-12-2-4-3-9-5-14-6-4-1-8-1-10 2-1 2 0 4 1 6-3 4-9 5-13 2l-4-2-6 3-11 7c-1 2 6 4 8 6l7-10c5 0 7 5 9 9 1 4 2 9 5 12h5c2-1 2-14 2-15 0 0 8-6 9-5l1 1c4 4 4 11-1 15 1 1 4 2 6 1l10-2c4-1 6-9 10-5 2 4 6 10 3 13l-3 3c-4 2-5 7-4 11 2 3 6 6 10 6h4l3 2c5 4 9 11 7 16 3 3 5 7 9 9 3 3 9 3 11-2-4-2-7-6-8-10l11-2 3-9-7-7h-7c-4-1-6-4-10-6-3-1-8 1-9-1l-1-4 2-10c0-3 0-6 2-8 4-9 20-18 30-16 1 4 1 8-2 10l-4 1-6 5c-2 2-3 7 0 8-2 0-3 3-1 5l6 1 5-4 8-2c2 1 5 3 4 6" class="st1"/></g></g><g id="Book"><path id="path38" fill="#337fbe" d="m695 483-5 16a383 383 0 0 0-314 40l-16-11a385 385 0 0 0-298-29l-5-16-7 20 4 17s157-47 276 8c5 2 1 10 12 23 8 8 20 12 34 12 10 0 20-1 29-7 7-5 11-12 14-20 0-2 0-8 3-8 144-55 274-7 274-7l6-18-7-20z" class="st0"/><path id="Middle_Book" fill="#d2d3d4" d="M709 435c-186-11-273 47-333 84-49-32-112-82-280-84-17-1-34 0-53 2l19 62s155-53 290 30l-2 3c-2 5 1 11 6 14 8 5 18 5 28 4 11-1 22-7 20-17l-3-4c135-82 289-30 289-30l19-62v-2z"/><path id="Top_Book" fill="#e6e6e6" d="M665 410c-187-10-289 98-289 98S276 400 89 410l-46 27s38-3 56-2c165 3 230 54 277 84 42-25 118-83 281-85l52 2-44-26z"/></g></g><g id="g45368" transform="translate(-81.099 -429.55)"><g id="g44192" style="fill:#fff;fill-opacity:1"><g id="g45090" style="stroke:#fff;stroke-opacity:1"><path id="path4484" d="M444.604 629.73c-29.806-7.546-41.123-77.882-35.666-68.142 7.82 18.863 19.918 48.487 24.196 51.962 48.054 20.788 24.95 78.041 11.47 16.18zM423.9 665.37c3.363-69.99 78.035-43.79 55.579 18.917-14.19 21.762-63.654-15.725-55.579-18.917z" style="fill:none;fill-opacity:1;stroke:#fff;stroke-width:41.7331;stroke-opacity:1"/><path id="path4523" d="M349.108 764.058c-7.701-3.57-17.155-9.493-27.358-17.138l-7.38-5.531.49-6.763c.27-3.72 1.64-11.701 3.047-17.737 2.004-8.604 2.923-11.212 4.257-12.08 4.18-2.72 33.014-10.886 41.578-11.774 3.229-.334 4.06 1.124 7.144 2.665 3.641 1.82 8.604 6.177 11.926 14.678 1.866 4.774 5.074 18.739 5.074 19.03 0 .793-12.231-14.534-14.878-15.392-1.271-.412-3.88-1.845-5.798-3.186-1.918-1.34-3.746-2.436-4.06-2.436-.54 0-.1 2.233.86 4.365.332.737-.428.898-3.318.702l-3.748-.254v2.903c0 1.597.094 2.915.208 2.93.114.016 6.127.46 13.362.987-2.82 9.164 64.56 14.449 63.842 21.219l-44.33-5.977-20.692-.454-20.692-.453v2.945c0 1.62.28 2.975.622 3.011.343.037 18.93.276 41.306.533l39.106 6.89-7.776-.794c-10.099-1.03 31.81.383 31.81.383-8.666 1.34-70.067-1.237-98.426 2.834v5.663l5.604.041c3.083.022 7.085.265 8.895.539l3.29.498c-59.414.362-2.547 1.166-17.445 10.176z" style="fill:#fff;fill-opacity:1;stroke:#fff;stroke-width:38.334;stroke-opacity:1"/><path id="path41229" d="M400.782 540.926c16.116 1.317-20.086 21.165 7.1-9.733 15.202 15.3-4.205.627-7.1 9.733z" style="fill:#fff;fill-opacity:1;stroke:#fff;stroke-width:6.28184;stroke-opacity:1"/></g></g><path id="path843-3" d="M533.698 795.96c0-.084.262-.253.581-.375.32-.123.582-.055.582.152s-.262.376-.582.376c-.32 0-.581-.069-.581-.153zm-187.486-5.796c-7.906-2.945-21.545-12.086-35.869-24.04-6.599-5.508-15.117-13.834-16.132-15.768-2.109-4.017-.3-22.427 4.341-44.206 2.484-11.654 3.205-13.924 4.988-15.706 1.695-1.695 5.952-3.925 12.305-6.446 10.284-4.082 31.826-10.769 41.789-12.972 4.37-.967 5.07-1.027 7.367-.63 7.806 1.346 19.762 9.21 33.087 21.762 4.417 4.16 7.745 9.762 10.158 17.095.596 1.812 1.12 3.341 1.165 3.397.044.056 3.99.542 8.769 1.08 17.547 1.98 26.92 3.683 30.852 5.611 4.33 2.123 8.262 7.291 10.392 13.662 1.074 3.213 2.143 9.39 2.147 12.409l.002 1.842h-3.652l1.606 1.648c2.713 2.783 3.729 5.293 3.914 9.673.13 3.055.003 4.271-.672 6.495l-.83 2.736-37.894.014-37.893.015-5.429 4.685c-9.94 8.578-17.705 14.195-23.492 16.993-2.854 1.38-3.536 1.556-5.958 1.538-1.836-.013-3.5-.305-5.061-.887zm8.143-7.465c3.41-1.745 9.044-5.692 15.37-10.768l4.898-3.932-11.782-.102-11.782-.103v-7.356H456.144l-.002-1.066c-.003-1.74-.738-3.874-1.746-5.071-.518-.616-3.39-2.532-6.382-4.258l-5.44-3.137-44.74-.602c-24.607-.33-46.943-.601-49.635-.601h-4.895v-7.368l4.556.01c2.506.004 22.879.262 45.272.572 22.394.31 45.11.568 50.482.573l9.767.008-.76-2.745c-1.486-5.359-4.024-9.312-6.946-10.819-3.834-1.976-22.968-4.638-52.93-7.361-12.486-1.135-37.12-3.117-38.74-3.116-.776 0-.807-.162-.677-3.587.075-1.973.188-3.642.252-3.71.064-.067 2.184.034 4.711.226 2.527.19 4.636.321 4.686.29.05-.032-.513-1.269-1.25-2.748-1.544-3.093-2.231-5.67-1.33-4.98l5.686 4.393 5.136 3.972 10.957.926c6.026.508 12.684 1.108 14.797 1.331 2.112.223 3.923.323 4.025.221.263-.263-1.319-4.15-3.14-7.713-1.798-3.518-5.145-7.097-11.513-12.312-11.073-9.066-19.4-14.31-22.72-14.31-1.882 0-14.749 3.35-24.586 6.402-10.951 3.398-20.105 6.74-25.509 9.316-3.746 1.785-4.451 2.269-4.906 3.362-.945 2.273-4.21 18.076-5.992 29.002-.887 5.438-1.982 15.413-1.982 18.05 0 2.556.104 2.915 1.302 4.482 3.363 4.401 21.87 19.865 31.464 26.29 7.499 5.021 16.06 9.687 17.837 9.72.214.004 1.61-.617 3.102-1.381zm116.33-70.214c-1.492-.058-7.774-.294-13.96-.523-6.184-.23-12.379-.592-13.765-.806-6.156-.952-17.073-8.121-32.406-21.283-10.667-9.156-11.5-10.219-12.833-16.362-1.49-6.873-.14-28.964 2.051-33.558 1.253-2.626 3.771-4.807 7.246-6.274 1.533-.647 2.756-1.314 2.717-1.481-.039-.168-1.495-2.835-3.236-5.928-5.245-9.315-11.354-21.117-14.658-28.317-9.244-20.142-12.571-32.604-10.889-40.783 1.088-5.289 5.506-11.743 10.02-14.64 1.753-1.125 1.921-1.378 2.532-3.81 1.764-7.024 7.759-13.518 15.31-16.587 1.35-.548 2.58-.855 2.733-.682.153.174 9.557 17.668 20.897 38.877 11.34 21.209 20.707 38.65 20.815 38.756.107.108.748-.132 1.425-.531.804-.475 2.246-.786 4.157-.896 4.864-.28 10.19 1.892 18.826 7.678 7.614 5.102 18.57 14.148 20.133 16.623 2.637 4.179 5.53 15.892 8.15 33.007 1.716 11.206 2.625 19.812 2.681 25.399.052 5.023-.013 5.559-.865 7.174-2.217 4.203-9.662 11.861-19.887 20.454l-5.652 4.75-4.413-.076a417.453 417.453 0 0 1-7.129-.181zm11.661-9.661c9.25-7.677 17.109-15.526 18.518-18.495.523-1.102.557-2.007.236-6.31-1.256-16.861-5.76-42.651-8.721-49.937-.987-2.43-1.51-2.969-8.406-8.651-10.184-8.392-20.408-14.488-24.299-14.488-.608 0-1.936.464-2.95 1.031-1.015.567-3.605 1.92-5.755 3.005-3.374 1.704-3.946 2.134-4.176 3.138-.147.64-.47 7.096-.719 14.347-.248 7.251-.866 22.603-1.372 34.114-.506 11.512-.847 21.004-.756 21.095.316.316 5.608-.74 7.775-1.55 3.022-1.13 4.89-3.094 5.704-5.997.888-3.163 2.057-11.1 2.765-18.773.495-5.36 1.77-23.44 1.77-25.093 0-.56 2.527-.67 5.618-.247l1.849.254-.278 5.607-.278 5.608 1.868-1.427c1.028-.784 1.931-1.238 2.008-1.008.167.5-1.867 4.939-3.383 7.387-.984 1.589-1.123 2.284-1.547 7.756-.993 12.8-2.647 22.121-4.547 25.61-2.137 3.928-6.148 6.724-11.72 8.172-3.386.88-10.1 1.356-13.362.949l-2.208-.276v-2.299c0-1.264-.054-2.298-.12-2.298s-1.331.594-2.811 1.32c-2.274 1.115-4.772 1.982-10.58 3.674-.82.239-.501.583 3.25 3.512 5.156 4.024 13.377 9.594 15.641 10.597 1.241.55 3.217.849 7.368 1.115 5.498.352 20.455.928 27.22 1.05l3.324.059zm-64.008-26.965.287-9.75 3.296-4.828c4.04-5.919 7.603-12.735 8.227-15.743.385-1.852.364-2.755-.117-5.114-.49-2.409-2.926-9.199-3.507-9.78-.097-.097-1.717 1.081-3.6 2.617-2.624 2.141-4.893 3.508-9.712 5.851-3.458 1.682-6.449 3.363-6.645 3.736-.802 1.519-1.792 12.795-1.797 20.454-.007 11.519.192 11.968 8.475 19.063 2.318 1.986 4.348 3.528 4.51 3.428.163-.101.425-4.571.583-9.934zm10.05 3.514c2.703-1.012 3.692-2.196 6.303-7.54l2.083-4.265.368-7.562c.203-4.159.445-8.957.539-10.664l.17-3.102-.925 2.922c-1.222 3.859-4.173 9.539-7.83 15.074l-2.97 4.495-.21 5.72c-.117 3.146-.087 5.72.065 5.72s1.235-.36 2.407-.798zm10.303-55.042c.44-13.262.49-13.842 1.403-15.87 1.067-2.37 1.14-2.236-2.03-3.747-1.093-.52-2.252-.846-2.575-.722-1.16.446-3.849 7.23-5.165 13.034l-.674 2.97 2.58 5.173c2.494 4.998 5.264 12.441 5.336 14.334.03.802.076.77.352-.243.174-.64.522-7.357.773-14.929zm-19.212 1.962c1.515-1.283 1.54-1.35 2.738-7.24l1.209-5.943-8.572-17.17c-11.135-22.307-16.972-35-20.914-45.478-.268-.712-.405-.647-1.653.775-1.68 1.913-3.343 5.158-4.02 7.843-1.698 6.726 4.597 25.047 16.536 48.13 3.607 6.975 10.741 19.936 11.51 20.912.426.54.242.646 3.166-1.83zm8.117-24.355c.729-1.401 3.236-3.89 4.7-4.665.745-.394 2.112-.61 3.8-.6 2.274.013 3.06.226 5.72 1.548 1.695.843 3.083 1.513 3.083 1.49 0-.2-36.574-68.325-36.811-68.566-.545-.555-5.194 4.443-6.344 6.818-1.453 3.005-1.77 6.44-.855 9.24 1.162 3.552 3.621 9.56 6.651 16.249 2.784 6.146 19.161 39.552 19.39 39.552.062 0 .361-.48.666-1.066z" style="stroke-width:.387768"/></g></svg>